%TF.GenerationSoftware,KiCad,Pcbnew,5.1.11-e4df9d881f~92~ubuntu21.04.1*%
%TF.CreationDate,2021-10-31T17:42:42-07:00*%
%TF.ProjectId,attiny402_rgb-pendant,61747469-6e79-4343-9032-5f7267622d70,1.0*%
%TF.SameCoordinates,Original*%
%TF.FileFunction,Legend,Bot*%
%TF.FilePolarity,Positive*%
%FSLAX46Y46*%
G04 Gerber Fmt 4.6, Leading zero omitted, Abs format (unit mm)*
G04 Created by KiCad (PCBNEW 5.1.11-e4df9d881f~92~ubuntu21.04.1) date 2021-10-31 17:42:42*
%MOMM*%
%LPD*%
G01*
G04 APERTURE LIST*
%ADD10C,0.120000*%
%ADD11C,0.150000*%
G04 APERTURE END LIST*
D10*
%TO.C,U1*%
X148590000Y-95270000D02*
X146640000Y-95270000D01*
X148590000Y-95270000D02*
X150540000Y-95270000D01*
X148590000Y-90150000D02*
X146640000Y-90150000D01*
X148590000Y-90150000D02*
X152040000Y-90150000D01*
%TO.C,J1*%
X140800000Y-88840000D02*
X140800000Y-96580000D01*
X140800000Y-96580000D02*
X138140000Y-96580000D01*
X138140000Y-96580000D02*
X138140000Y-88840000D01*
X138140000Y-88840000D02*
X140800000Y-88840000D01*
X138140000Y-89790000D02*
X132140000Y-89790000D01*
X132140000Y-89790000D02*
X132140000Y-90550000D01*
X132140000Y-90550000D02*
X138140000Y-90550000D01*
X138140000Y-89850000D02*
X132140000Y-89850000D01*
X138140000Y-89970000D02*
X132140000Y-89970000D01*
X138140000Y-90090000D02*
X132140000Y-90090000D01*
X138140000Y-90210000D02*
X132140000Y-90210000D01*
X138140000Y-90330000D02*
X132140000Y-90330000D01*
X138140000Y-90450000D02*
X132140000Y-90450000D01*
X141130000Y-89790000D02*
X140800000Y-89790000D01*
X141130000Y-90550000D02*
X140800000Y-90550000D01*
X140800000Y-91440000D02*
X138140000Y-91440000D01*
X138140000Y-92330000D02*
X132140000Y-92330000D01*
X132140000Y-92330000D02*
X132140000Y-93090000D01*
X132140000Y-93090000D02*
X138140000Y-93090000D01*
X141197071Y-92330000D02*
X140800000Y-92330000D01*
X141197071Y-93090000D02*
X140800000Y-93090000D01*
X140800000Y-93980000D02*
X138140000Y-93980000D01*
X138140000Y-94870000D02*
X132140000Y-94870000D01*
X132140000Y-94870000D02*
X132140000Y-95630000D01*
X132140000Y-95630000D02*
X138140000Y-95630000D01*
X141197071Y-94870000D02*
X140800000Y-94870000D01*
X141197071Y-95630000D02*
X140800000Y-95630000D01*
X143510000Y-90170000D02*
X143510000Y-88900000D01*
X143510000Y-88900000D02*
X142240000Y-88900000D01*
%TO.C,U1*%
D11*
X149351904Y-88762380D02*
X149351904Y-89571904D01*
X149304285Y-89667142D01*
X149256666Y-89714761D01*
X149161428Y-89762380D01*
X148970952Y-89762380D01*
X148875714Y-89714761D01*
X148828095Y-89667142D01*
X148780476Y-89571904D01*
X148780476Y-88762380D01*
X147780476Y-89762380D02*
X148351904Y-89762380D01*
X148066190Y-89762380D02*
X148066190Y-88762380D01*
X148161428Y-88905238D01*
X148256666Y-89000476D01*
X148351904Y-89048095D01*
%TO.C,J1*%
X138188333Y-87352380D02*
X138188333Y-88066666D01*
X138235952Y-88209523D01*
X138331190Y-88304761D01*
X138474047Y-88352380D01*
X138569285Y-88352380D01*
X137188333Y-88352380D02*
X137759761Y-88352380D01*
X137474047Y-88352380D02*
X137474047Y-87352380D01*
X137569285Y-87495238D01*
X137664523Y-87590476D01*
X137759761Y-87638095D01*
%TO.C,BT1*%
X150115714Y-96988571D02*
X149972857Y-97036190D01*
X149925238Y-97083809D01*
X149877619Y-97179047D01*
X149877619Y-97321904D01*
X149925238Y-97417142D01*
X149972857Y-97464761D01*
X150068095Y-97512380D01*
X150449047Y-97512380D01*
X150449047Y-96512380D01*
X150115714Y-96512380D01*
X150020476Y-96560000D01*
X149972857Y-96607619D01*
X149925238Y-96702857D01*
X149925238Y-96798095D01*
X149972857Y-96893333D01*
X150020476Y-96940952D01*
X150115714Y-96988571D01*
X150449047Y-96988571D01*
X149591904Y-96512380D02*
X149020476Y-96512380D01*
X149306190Y-97512380D02*
X149306190Y-96512380D01*
X148163333Y-97512380D02*
X148734761Y-97512380D01*
X148449047Y-97512380D02*
X148449047Y-96512380D01*
X148544285Y-96655238D01*
X148639523Y-96750476D01*
X148734761Y-96798095D01*
%TD*%
M02*
