%TF.GenerationSoftware,KiCad,Pcbnew,5.1.11-e4df9d881f~92~ubuntu21.04.1*%
%TF.CreationDate,2021-10-31T17:42:42-07:00*%
%TF.ProjectId,attiny402_rgb-pendant,61747469-6e79-4343-9032-5f7267622d70,1.0*%
%TF.SameCoordinates,Original*%
%TF.FileFunction,Soldermask,Bot*%
%TF.FilePolarity,Negative*%
%FSLAX46Y46*%
G04 Gerber Fmt 4.6, Leading zero omitted, Abs format (unit mm)*
G04 Created by KiCad (PCBNEW 5.1.11-e4df9d881f~92~ubuntu21.04.1) date 2021-10-31 17:42:42*
%MOMM*%
%LPD*%
G01*
G04 APERTURE LIST*
%ADD10O,1.700000X1.700000*%
%ADD11R,1.700000X1.700000*%
%ADD12C,1.600000*%
G04 APERTURE END LIST*
%TO.C,U1*%
G36*
G01*
X147090000Y-90655000D02*
X147090000Y-90955000D01*
G75*
G02*
X146940000Y-91105000I-150000J0D01*
G01*
X145290000Y-91105000D01*
G75*
G02*
X145140000Y-90955000I0J150000D01*
G01*
X145140000Y-90655000D01*
G75*
G02*
X145290000Y-90505000I150000J0D01*
G01*
X146940000Y-90505000D01*
G75*
G02*
X147090000Y-90655000I0J-150000D01*
G01*
G37*
G36*
G01*
X147090000Y-91925000D02*
X147090000Y-92225000D01*
G75*
G02*
X146940000Y-92375000I-150000J0D01*
G01*
X145290000Y-92375000D01*
G75*
G02*
X145140000Y-92225000I0J150000D01*
G01*
X145140000Y-91925000D01*
G75*
G02*
X145290000Y-91775000I150000J0D01*
G01*
X146940000Y-91775000D01*
G75*
G02*
X147090000Y-91925000I0J-150000D01*
G01*
G37*
G36*
G01*
X147090000Y-93195000D02*
X147090000Y-93495000D01*
G75*
G02*
X146940000Y-93645000I-150000J0D01*
G01*
X145290000Y-93645000D01*
G75*
G02*
X145140000Y-93495000I0J150000D01*
G01*
X145140000Y-93195000D01*
G75*
G02*
X145290000Y-93045000I150000J0D01*
G01*
X146940000Y-93045000D01*
G75*
G02*
X147090000Y-93195000I0J-150000D01*
G01*
G37*
G36*
G01*
X147090000Y-94465000D02*
X147090000Y-94765000D01*
G75*
G02*
X146940000Y-94915000I-150000J0D01*
G01*
X145290000Y-94915000D01*
G75*
G02*
X145140000Y-94765000I0J150000D01*
G01*
X145140000Y-94465000D01*
G75*
G02*
X145290000Y-94315000I150000J0D01*
G01*
X146940000Y-94315000D01*
G75*
G02*
X147090000Y-94465000I0J-150000D01*
G01*
G37*
G36*
G01*
X152040000Y-94465000D02*
X152040000Y-94765000D01*
G75*
G02*
X151890000Y-94915000I-150000J0D01*
G01*
X150240000Y-94915000D01*
G75*
G02*
X150090000Y-94765000I0J150000D01*
G01*
X150090000Y-94465000D01*
G75*
G02*
X150240000Y-94315000I150000J0D01*
G01*
X151890000Y-94315000D01*
G75*
G02*
X152040000Y-94465000I0J-150000D01*
G01*
G37*
G36*
G01*
X152040000Y-93195000D02*
X152040000Y-93495000D01*
G75*
G02*
X151890000Y-93645000I-150000J0D01*
G01*
X150240000Y-93645000D01*
G75*
G02*
X150090000Y-93495000I0J150000D01*
G01*
X150090000Y-93195000D01*
G75*
G02*
X150240000Y-93045000I150000J0D01*
G01*
X151890000Y-93045000D01*
G75*
G02*
X152040000Y-93195000I0J-150000D01*
G01*
G37*
G36*
G01*
X152040000Y-91925000D02*
X152040000Y-92225000D01*
G75*
G02*
X151890000Y-92375000I-150000J0D01*
G01*
X150240000Y-92375000D01*
G75*
G02*
X150090000Y-92225000I0J150000D01*
G01*
X150090000Y-91925000D01*
G75*
G02*
X150240000Y-91775000I150000J0D01*
G01*
X151890000Y-91775000D01*
G75*
G02*
X152040000Y-91925000I0J-150000D01*
G01*
G37*
G36*
G01*
X152040000Y-90655000D02*
X152040000Y-90955000D01*
G75*
G02*
X151890000Y-91105000I-150000J0D01*
G01*
X150240000Y-91105000D01*
G75*
G02*
X150090000Y-90955000I0J150000D01*
G01*
X150090000Y-90655000D01*
G75*
G02*
X150240000Y-90505000I150000J0D01*
G01*
X151890000Y-90505000D01*
G75*
G02*
X152040000Y-90655000I0J-150000D01*
G01*
G37*
%TD*%
D10*
%TO.C,J1*%
X142240000Y-95250000D03*
X142240000Y-92710000D03*
D11*
X142240000Y-90170000D03*
%TD*%
D12*
%TO.C,BT1*%
X147530000Y-99060000D03*
G36*
G01*
X151930000Y-98510000D02*
X151930000Y-99610000D01*
G75*
G02*
X151680000Y-99860000I-250000J0D01*
G01*
X150580000Y-99860000D01*
G75*
G02*
X150330000Y-99610000I0J250000D01*
G01*
X150330000Y-98510000D01*
G75*
G02*
X150580000Y-98260000I250000J0D01*
G01*
X151680000Y-98260000D01*
G75*
G02*
X151930000Y-98510000I0J-250000D01*
G01*
G37*
%TD*%
M02*
