%TF.GenerationSoftware,KiCad,Pcbnew,5.1.11-e4df9d881f~92~ubuntu21.04.1*%
%TF.CreationDate,2021-10-31T17:42:42-07:00*%
%TF.ProjectId,attiny402_rgb-pendant,61747469-6e79-4343-9032-5f7267622d70,1.0*%
%TF.SameCoordinates,Original*%
%TF.FileFunction,Legend,Top*%
%TF.FilePolarity,Positive*%
%FSLAX46Y46*%
G04 Gerber Fmt 4.6, Leading zero omitted, Abs format (unit mm)*
G04 Created by KiCad (PCBNEW 5.1.11-e4df9d881f~92~ubuntu21.04.1) date 2021-10-31 17:42:42*
%MOMM*%
%LPD*%
G01*
G04 APERTURE LIST*
%ADD10C,0.120000*%
%ADD11C,0.150000*%
G04 APERTURE END LIST*
D10*
%TO.C,R1*%
X157120000Y-91982936D02*
X157120000Y-93437064D01*
X155300000Y-91982936D02*
X155300000Y-93437064D01*
%TO.C,D1*%
X144990000Y-90010000D02*
X151090000Y-90010000D01*
X144990000Y-91110000D02*
X144990000Y-90010000D01*
X151090000Y-95410000D02*
X146090000Y-95410000D01*
%TO.C,R1*%
D11*
X158482380Y-92876666D02*
X158006190Y-93210000D01*
X158482380Y-93448095D02*
X157482380Y-93448095D01*
X157482380Y-93067142D01*
X157530000Y-92971904D01*
X157577619Y-92924285D01*
X157672857Y-92876666D01*
X157815714Y-92876666D01*
X157910952Y-92924285D01*
X157958571Y-92971904D01*
X158006190Y-93067142D01*
X158006190Y-93448095D01*
X158482380Y-91924285D02*
X158482380Y-92495714D01*
X158482380Y-92210000D02*
X157482380Y-92210000D01*
X157625238Y-92305238D01*
X157720476Y-92400476D01*
X157768095Y-92495714D01*
%TO.C,D1*%
X147851904Y-89662380D02*
X147851904Y-88662380D01*
X148090000Y-88662380D01*
X148232857Y-88710000D01*
X148328095Y-88805238D01*
X148375714Y-88900476D01*
X148423333Y-89090952D01*
X148423333Y-89233809D01*
X148375714Y-89424285D01*
X148328095Y-89519523D01*
X148232857Y-89614761D01*
X148090000Y-89662380D01*
X147851904Y-89662380D01*
X149375714Y-89662380D02*
X148804285Y-89662380D01*
X149090000Y-89662380D02*
X149090000Y-88662380D01*
X148994761Y-88805238D01*
X148899523Y-88900476D01*
X148804285Y-88948095D01*
%TD*%
M02*
